<?xml version="1.0" encoding="utf-8"?>
<!-- Generator: Adobe Illustrator 23.1.1, SVG Export Plug-In . SVG Version: 6.00 Build 0)  -->
<svg version="1.1" id="Capa_1" xmlns="http://www.w3.org/2000/svg" xmlns:xlink="http://www.w3.org/1999/xlink" x="0px" y="0px"
	 viewBox="0 0 732.4 321.5" style="enable-background:new 0 0 732.4 321.5;" xml:space="preserve">
<path fill="#003CBE" d="M103.3,130.7v1.5c0,2.5,0.2,4.8,1.5,7.2l-0.4,0.4c-2.5-1.5-5.5-1.5-9.5-1.5h-4c-2.7,0-4.8,2.2-4.8,4.8v17.1
	c0,2.7,2.2,4.8,4.8,4.8h4c4.8,0,7.2,0,9.5-1.5l0.4,0.4c-1.5,2.5-1.5,5.9-1.5,12v44c0,8.6,7,15.6,15.6,15.6h11.4
	c2.7,0,4.8-2.2,4.8-4.8V176c0-6.1,0-9.5-1.5-12l0.4-0.4c2.3,1.5,4.6,1.5,9.5,1.5h9.3c2.7,0,4.8-2.2,4.8-4.8v-17.1
	c0-2.7-2.2-4.8-4.8-4.8h-9.3c-4,0-6.9,0-9.5,1.5l-0.4-0.4c1.3-2.3,1.5-4.6,1.5-7.2v-1.5c0-11,6.7-15.1,19.1-15.7
	c1.9-0.1,3.4-1.7,3.4-3.6l0-21.7c0-2-1.6-3.6-3.6-3.6h-2.9C120,86.1,103.3,99.4,103.3,130.7z"/>
<path fill="#003CBE" d="M326.4,174.7v45.7c0,8.3-6.8,15.1-15.1,15.1h-11.8c-2.6,0-4.7-2.1-4.7-4.7v-47.3c0-13.9-6.1-20.6-16.4-20.6
	c-12,0-20.2,7.2-20.2,25.7v32.1c0,8.2-6.7,14.9-14.9,14.9h-12.2c-2.6,0-4.7-2.1-4.7-4.7v-76.4c0-8.9,7.2-16.1,16.1-16.1l10.4,0
	c2.7,0,4.8,2.2,4.8,4.9c-0.2,8.3-0.8,12-1.9,17l0.8,0.4c5.9-14.3,16-25.5,35.6-25.5C314,135.1,326.4,148.4,326.4,174.7z"/>
<path fill="#003CBE" d="M189.6,138.5c-0.1,0-0.1,0-0.2,0v0.3l-0.3-0.3h-11.6c-2.3,0-4.2,1.9-4.2,4.2v77.2l0,0c0,0.1,0,0.1,0,0.2
	c0,8.5,6.8,15.3,15.3,15.3l0,0h12.2l0,0c2.3,0,4.2-1.9,4.2-4.2v-77.4C204.9,145.4,198.1,138.5,189.6,138.5z"/>
<path fill="#003CBE" d="M189.1,96c-11.2,0-20.2,7.7-20.2,17.3c0,9.5,9,17.3,20.2,17.3s20.2-7.7,20.2-17.3
	C209.3,103.7,200.2,96,189.1,96z"/>
<path fill="#50A0FF" d="M632.3,110.2h-43.8c-4.1,0-7.9,1.7-10.6,4.7l-16.6,18.3c-1,1.1-1.3,2.7-0.7,4.1c0.6,1.4,2,2.3,3.5,2.3h43.3
	c5.2,0,10.2-1.5,14.6-4.3c-3.5,9.6-5,27.6-5,32.6v24.6c0,1.5,0.9,2.9,2.3,3.5c0.5,0.2,1,0.3,1.6,0.3c0.9,0,1.8-0.3,2.5-1l18.3-16.5
	c3-2.7,4.7-6.6,4.7-10.7v-43.9C646.3,116.5,640,110.2,632.3,110.2z"/>
<path fill="#003CBE" d="M529.1,138.5L529.1,138.5h-11.7c-2.3,0-4.2,1.9-4.2,4.2c0,0.1,0,0.1,0,0.2l0,0c0.4,7.8,1.1,12.5,2.3,17.4
	l-0.8,0.2c-6.7-16.6-18.9-25.2-35.9-25.2c-26.6,0-44.5,20.8-44.5,51.8c0,31,17.6,51.4,44.5,51.4c17.2,0,30.2-9.2,35.7-25.2l0.8,0.2
	c-1.1,6.5-1.5,10.8-1.6,17.5l0,0c0,0,0,0.1,0,0.1c0,2.3,1.8,4.2,4.1,4.2l0,0h11.2l0,0c0.1,0,0.1,0,0.2,0c8.4,0,15.3-6.8,15.3-15.3
	l0,0v-66.3l0,0C544.4,145.4,537.5,138.5,529.1,138.5z M490.5,210.2c-14.5,0-23.7-9-23.7-23.3c0-14.3,9.4-23.3,23.7-23.3
	c14.5,0,23.7,9.2,23.7,23.3C514.2,201,505,210.2,490.5,210.2z"/>
<path fill="#003CBE" d="M431.5,140.8c-0.8-1.6-2.3-2.5-4.1-2.5h-72.9c-2.2,0-4.3,1.2-5.4,3.2l-8.4,14.7c-1.1,2-1.1,4.3,0,6.3
	c1.1,2,3.2,3.1,5.4,3.1h22.6c8.8,0,12.7-1,17.1-3.3l-50.4,66.1c-1,1.4-1.2,3.2-0.5,4.7c0.8,1.5,2.3,2.5,4,2.5h76.6
	c2.2,0,4.2-1.1,5.3-3l9-14.7c1.2-2,1.2-4.3,0.1-6.3s-3.2-3.2-5.5-3.2h-23.9c-9.7,0-14.2,0.5-18.8,3.2l49.3-65.9
	C432.1,144.2,432.3,142.4,431.5,140.8z"/>
</svg>

